<svg xmlns="http://www.w3.org/2000/svg" viewBox="0 0 98.624 98.624"><path d="M62.161 24.47H36.218c-6.492 0-11.774 5.282-11.774 11.774v26.181c0 6.492 5.282 11.774 11.774 11.774h25.943c6.492 0 11.774-5.282 11.774-11.774V36.244c0-6.492-5.282-11.774-11.774-11.774zM49.239 65.011c-8.8 0-15.959-7.083-15.959-15.789s7.16-15.789 15.959-15.789 15.959 7.083 15.959 15.789-7.159 15.789-15.959 15.789zm16.243-28.469a3.755 3.755 0 110-7.51 3.755 3.755 0 010 7.51z"/><path d="M49.312 0C22.078 0 0 22.078 0 49.312s22.078 49.312 49.312 49.312 49.312-22.078 49.312-49.312S76.546 0 49.312 0zm30.447 62.425c0 9.704-7.895 17.598-17.598 17.598H36.218c-9.704 0-17.598-7.895-17.598-17.598V36.244c0-9.704 7.895-17.598 17.598-17.598h25.943c9.704 0 17.598 7.895 17.598 17.598v26.181z"/><path d="M49.239 39.246c-5.595 0-10.146 4.475-10.146 9.976 0 5.501 4.551 9.976 10.146 9.976 5.595 0 10.146-4.475 10.146-9.976 0-5.501-4.551-9.976-10.146-9.976z"/></svg>