<svg xmlns="http://www.w3.org/2000/svg" id="Слой_1" x="0" y="0" viewBox="0 0 2000 796.3" xml:space="preserve"><style>.st1{display:none}.st2{display:inline}.st3{fill:#fcee21}</style><path d="M1861.8 756.6h-1723c-71 0-129-58-129-129V170.4c0-71 58-129 129-129h1723c70.9 0 129 58 129 129v457.2c0 71-58 129-129 129z" fill="#fff"/><g class="st1"><path d="M1215.8 389.7h-31.5V228.4h36.6v105.5l88-105.5h31.5v161.3h-36.6V284.2l-88 105.5zm96.6-197.6c-13.7 9.2-30.4 13.8-50 13.8s-36.3-4.6-50-13.8v-29.2c15.3 9.4 31.9 14.1 50 14.1 18 0 34.7-4.7 50-14.1v29.2z"/><g class="st2"><circle class="st3" cx="437.1" cy="308.7" r="161"/></g><path d="M913.3 389.7V283l-52.6 89.9h-15.8l-51.7-90.2v107.1h-33.3V228.7h38.3l55.5 100.7 58.2-100.7h34.2l.3 161.1h-33.1zm109.1-8.4c-12.7-7-22.6-16.8-29.7-29.4-7.1-12.6-10.7-26.8-10.7-42.7s3.6-30.1 10.7-42.5c7.1-12.5 17-22.2 29.7-29.3 12.7-7 26.9-10.6 42.7-10.6 16 0 30.3 3.5 43 10.6 12.7 7 22.6 16.8 29.7 29.3 7.1 12.5 10.7 26.6 10.7 42.5s-3.6 30.1-10.7 42.7c-7.1 12.6-17 22.4-29.7 29.4s-27 10.6-43 10.6c-15.8 0-30-3.6-42.7-10.6zm76-35.6c8.8-9.2 13.2-21.4 13.2-36.5 0-15.1-4.4-27.2-13.2-36.5-8.8-9.2-19.9-13.9-33.3-13.9-13.4 0-24.5 4.6-33.2 13.9-8.7 9.3-13 21.4-13 36.5 0 15.1 4.3 27.3 13 36.5 8.7 9.3 19.7 13.9 33.2 13.9 13.4 0 24.5-4.6 33.3-13.9zm-656.7 59.1H212.9c-53 0-96.2-43.1-96.2-96.2s43.1-96.2 96.2-96.2h228.7c53 0 96.2 43.1 96.2 96.2s-43.1 96.2-96.1 96.2zM212.9 244.7c-35.3 0-64 28.7-64 63.9s28.7 63.9 64 63.9h228.7c35.3 0 64-28.7 64-63.9s-28.7-63.9-64-63.9H212.9zm708.7 210H775.2l-2 57c-.8 19.1-3 33.9-6.7 44.5s-10.3 15.9-19.9 16.1h-5.8V652h51.7v-33.8h99.7V652h51.5v-79.6h-21.9V454.7zm-55.5 117.7h-55c4.3-5.2 7.2-12.3 8.8-21.1 1.6-8.8 2.6-20.6 3.2-35.3l.6-15.7h42.4v72.1zm220.1-110.3c-12.9-6.7-27.2-10.1-43-10.1-16.6 0-31.5 3.6-44.7 10.9-13.3 7.2-23.6 17.2-31.1 30s-11.3 27.2-11.3 43.3c0 16.3 3.8 30.9 11.5 43.7 7.7 12.9 18.6 22.9 32.6 30.2 14 7.2 30.3 10.9 48.8 10.9 29.6 0 52.1-8.8 67.5-26.5l-29.2-31.4c-5.7 5-11.3 8.7-16.8 10.9-5.5 2.2-12.1 3.3-19.7 3.3-10.1 0-18.6-2.3-25.3-6.8-6.7-4.5-11.3-11-13.6-19.5h115.2c.6-9 .9-13.8.9-14.2 0-17.5-3.8-32.6-11.3-45.4-7.4-12.8-17.6-22.5-30.5-29.3zm-75.1 58.7c1.6-8.6 5.2-15.5 11-20.5 5.7-5 12.9-7.5 21.5-7.5s15.7 2.5 21.5 7.5c5.7 5 9.4 11.9 11 20.5h-65zm273.9 11.8c7.2-3.6 12.8-8.4 16.7-14.5 3.9-6 5.8-13 5.8-20.8 0-13.5-5.7-23.9-17.1-31.4-11.4-7.4-27.4-11.2-48.1-11.2h-85.1v163.5h89.2c21.6 0 38-4.2 49.1-12.5 11.1-8.3 16.7-19.9 16.7-34.5 0-19.5-9.1-32.4-27.2-38.6zm-78-41.1h30.4c12.9 0 19.3 4.7 19.3 14.2 0 9.9-6.4 14.8-19.3 14.8H1207v-29zm34.4 89.6H1207V551h35.1c13.1 0 19.6 5 19.6 15.1-.1 10-6.8 15-20.3 15zM1404.9 452c-12.7 0-25.3 1.7-37.9 5-12.6 3.3-23.2 8-32 14l18.7 38.9c5.5-4.4 12.1-7.9 19.9-10.4 7.8-2.5 15.5-3.8 23.1-3.8 21.4 0 32.6 8.7 33.6 25.9h-31.6c-24 0-41.7 4.3-53.2 12.8s-17.3 20.6-17.3 36c0 9.7 2.3 18.3 6.9 25.8 4.6 7.5 11.4 13.5 20.3 18 9 4.4 19.6 6.6 31.9 6.6 23.2 0 38.8-7.9 46.8-23.8v21.1h51.7v-90.8c0-25.5-6.9-44.5-20.8-56.9-13.8-12.2-33.8-18.4-60.1-18.4zm25.4 113.7c-2.1 6.2-5.7 11-10.5 14.2-4.9 3.2-10.5 4.8-17 4.8-6.4 0-11.5-1.5-15.2-4.5-3.7-3-5.6-7-5.6-12.1 0-11.1 8.1-16.6 24.3-16.6h24v14.2zm144.1-25.3v-85.7h-55.2v163.5h51.4l65.8-85.9v85.9h55.5V454.7h-51.1zm234.2 35c-9.9 0-18.2-3.5-24.7-10.4s-9.8-16.5-9.8-28.8c0-12.1 3.3-21.5 9.8-28.4 6.5-6.8 14.8-10.3 24.7-10.3 13.8 0 24.4 7.3 31.6 22l43-22.6c-5.5-14.1-14.7-25.1-27.8-33-13.1-7.9-28.5-11.9-46.5-11.9-17.5 0-33.2 3.6-47.1 10.7-13.8 7.1-24.6 17.1-32.3 29.9-7.7 12.8-11.5 27.3-11.5 43.6s3.8 30.9 11.5 43.7c7.7 12.9 18.5 22.9 32.3 30.2 13.8 7.2 29.5 10.9 47.1 10.9 17.9 0 33.4-4 46.5-11.9s22.3-19 27.8-33l-43-22.6c-7.3 14.5-17.8 21.9-31.6 21.9zM1662 424.6V383c-16 8-34.8 11.9-56.4 11.9-21.9 0-40.7-4-56.4-11.9v41.6c16.5 8.9 35.3 13.3 56.4 13.3s39.9-4.4 56.4-13.3z"/></g><g class="st1"><g class="st2"><circle class="st3" cx="195.8" cy="400.8" r="66.2"/></g><g class="st2"><circle class="st3" cx="464.1" cy="400.8" r="66.2"/></g><path d="M441.4 426.2H221.5c-20.5 0-38.1-12.5-44.9-31.9-6.8-19.4-.8-40.1 15.2-52.9l.8-.6 214.7-149.7c16-11.2 36.8-12.5 54.1-3.5 17.3 9 28.1 26.8 28.1 46.3V378c0 26.7-21.6 48.2-48.1 48.2zm-231.7-61.7c-9.1 7.5-6.5 17.3-5.5 20.2 1 2.9 5.2 12.3 17.3 12.3h219.9c10.4 0 18.8-8.4 18.8-18.8V234c0-8.7-4.6-16.4-12.4-20.4-7.7-4-16.6-3.5-23.8 1.5L209.7 364.5zm503.6 243.4c-12.6-6.6-22.4-15.7-29.3-27.4-7-11.7-10.5-24.9-10.5-39.7 0-14.8 3.5-28 10.5-39.6 7-11.6 16.8-20.6 29.3-27.1 12.6-6.5 26.8-9.7 42.8-9.7 16.3 0 30.4 3.6 42.2 10.8 11.9 7.2 20.3 17.2 25.2 30l-39 20.6c-6.5-13.3-16.1-20-28.7-20-9 0-16.5 3.1-22.4 9.3-5.9 6.2-8.9 14.8-8.9 25.8 0 11.1 3 19.9 8.9 26.2 5.9 6.3 13.4 9.5 22.4 9.5 12.6 0 22.1-6.7 28.7-20l39 20.5c-5 12.8-13.4 22.8-25.2 30-11.9 7.2-25.9 10.8-42.2 10.8-16-.2-30.2-3.5-42.8-10zm244.6-126.8c12.6 11.2 18.9 28.5 18.9 51.7v82.5h-47v-19.2c-7.3 14.4-21.4 21.6-42.5 21.6-11.2 0-20.8-2-28.9-6-8.1-4-14.3-9.5-18.5-16.3-4.2-6.8-6.2-14.7-6.2-23.4 0-14.1 5.2-25 15.7-32.7 10.4-7.8 26.6-11.6 48.3-11.6h28.7c-.9-15.7-11.1-23.6-30.5-23.6-6.9 0-13.9 1.1-21 3.4s-13.1 5.4-18.1 9.5l-17-35.3c8-5.5 17.7-9.7 29.1-12.7 11.4-3 22.9-4.5 34.4-4.5 23.8-.2 42 5.4 54.6 16.6zm-41.2 99.4c4.4-2.9 7.6-7.2 9.6-12.9v-12.9h-21.8c-14.7 0-22 5-22 15.1 0 4.6 1.7 8.2 5 11 3.4 2.7 8 4.1 13.8 4.1 5.9-.1 11-1.5 15.4-4.4zm230 34.8v-78.1l-36.9 64.9h-21.5l-35.9-66v79.2H1007V466.7h53.1l40.1 77.6 44.1-77.6h47.5l.3 148.5h-45.4zm108.6-7.4c-12.4-6.6-22.1-15.7-29.1-27.4s-10.5-24.9-10.5-39.7c0-14.6 3.5-27.8 10.5-39.5s16.6-20.8 28.9-27.3c12.3-6.5 26.2-9.7 41.8-9.7 15.6 0 29.6 3.2 42 9.7 12.4 6.5 22 15.5 28.9 27.1 6.9 11.6 10.4 24.8 10.4 39.6s-3.5 28-10.4 39.7c-6.9 11.7-16.6 20.8-28.9 27.4-12.4 6.6-26.4 9.9-42 9.9-15.3 0-29.2-3.3-41.6-9.8zm63.5-41c5.7-6.3 8.5-15 8.5-26.2 0-11-2.8-19.5-8.5-25.8-5.7-6.2-12.9-9.3-21.8-9.3s-16.1 3.1-21.8 9.3c-5.7 6.2-8.5 14.8-8.5 25.8 0 11.1 2.8 19.9 8.5 26.2 5.7 6.3 12.9 9.5 21.8 9.5 8.9-.1 16.1-3.2 21.8-9.5zm150.6-4.5h-17v52.9h-50.5V466.7h50.5v54.8h18.1l35.3-54.8h53.4l-48.3 71.2 51.5 77.3h-59.5l-33.5-52.8zm220.4-81.3c12.6 11.2 18.9 28.5 18.9 51.7v82.5h-47v-19.2c-7.3 14.4-21.4 21.6-42.5 21.6-11.2 0-20.8-2-28.9-6-8.1-4-14.3-9.5-18.5-16.3-4.2-6.8-6.2-14.7-6.2-23.4 0-14.1 5.2-25 15.7-32.7 10.4-7.8 26.6-11.6 48.3-11.6h28.7c-.9-15.7-11.1-23.6-30.5-23.6-6.9 0-13.9 1.1-21 3.4s-13.1 5.4-18.1 9.5l-17-35.3c8-5.5 17.7-9.7 29.1-12.7 11.4-3 22.9-4.5 34.4-4.5 23.8-.2 42 5.4 54.6 16.6zm-41.2 99.4c4.4-2.9 7.6-7.2 9.6-12.9v-12.9h-21.8c-14.7 0-22 5-22 15.1 0 4.6 1.7 8.2 5 11 3.4 2.7 8 4.1 13.8 4.1 5.9-.1 11-1.5 15.4-4.4zm218.9-72.4h-46.2v107.1h-50.2V508.1h-46.5v-41.4h142.9v41.4zM830.8 407.7v-97L783 392.4h-14.3l-47-81.9v97.3h-30.3V261.4h34.8l50.5 91.5 52.9-91.5h31.1l.3 146.3h-30.2zm99.1-7.7c-11.5-6.4-20.5-15.3-27-26.7-6.5-11.4-9.7-24.3-9.7-38.8 0-14.4 3.2-27.3 9.7-38.6 6.5-11.3 15.4-20.2 27-26.6 11.5-6.4 24.4-9.6 38.8-9.6 14.5 0 27.5 3.2 39 9.6 11.5 6.4 20.5 15.3 27 26.6s9.7 24.2 9.7 38.6c0 14.4-3.2 27.4-9.7 38.8-6.5 11.4-15.4 20.3-27 26.7-11.5 6.4-24.5 9.6-39 9.6-14.4 0-27.3-3.2-38.8-9.6zm69-32.3c8-8.4 12-19.5 12-33.2 0-13.7-4-24.8-12-33.2-8-8.4-18.1-12.6-30.3-12.6s-22.3 4.2-30.1 12.6c-7.9 8.4-11.8 19.5-11.8 33.2 0 13.7 3.9 24.8 11.8 33.2 7.9 8.4 17.9 12.6 30.1 12.6 12.3 0 22.4-4.2 30.3-12.6zm106.7 40H1077V261.1h33.3V357l79.9-95.9h28.6v146.6h-33.3v-95.9l-79.9 95.9zm87.7-179.5c-12.4 8.4-27.6 12.5-45.4 12.5-17.8 0-33-4.2-45.4-12.5v-26.6c13.9 8.6 29 12.8 45.4 12.8s31.5-4.3 45.4-12.8v26.6z"/></g><path class="st3" d="M115 433.8h312.5c22.7 0 41.1-18.4 41.1-41.1 0-24.8-21.8-44-46.4-40.8l-309.9 40.4c-10.4 1.4-18.1 10.2-18.1 20.7 0 11.5 9.3 20.8 20.8 20.8z"/><path d="M402.4 413.8c-15.4 0-29-8.9-35.3-23.8l-76.5-148.2c-4.9-11.9-3.5-25.5 3.7-36.2 7.1-10.7 19.1-17.2 32-17.3l76.3-.7h.4c10.3 0 20 4 27.4 11.3 7.4 7.4 11.5 17.2 11.5 27.6v148.4c0 19.2-12.6 34.5-31.4 38.2-2.8.4-5.5.7-8.1.7zm-89.8-181.5l76.5 148.1c3.4 8.4 10.9 10.2 16.7 9 5.8-1.1 12.1-5.6 12.1-14.7V226.4c0-4-1.6-7.8-4.4-10.6-2.8-2.8-6.5-4.3-10.5-4.3h-.1l-76.3.7c-5 0-9.5 2.5-12.3 6.7-2.8 4-3.4 8.9-1.7 13.4zM743 379.2v-86.1l-42.4 72.5h-12.7l-41.7-72.7v86.3h-26.9V249.4h30.9l44.8 81.2 46.9-81.2h27.6l.2 129.8H743zm87.9-6.8c-10.2-5.7-18.2-13.6-23.9-23.7-5.7-10.1-8.6-21.6-8.6-34.4 0-12.8 2.9-24.2 8.6-34.3 5.7-10.1 13.7-17.9 23.9-23.6 10.2-5.7 21.7-8.5 34.4-8.5 12.9 0 24.4 2.8 34.6 8.5 10.2 5.7 18.2 13.5 23.9 23.6s8.6 21.5 8.6 34.3c0 12.8-2.9 24.3-8.6 34.4-5.7 10.1-13.7 18-23.9 23.7-10.2 5.7-21.8 8.5-34.6 8.5-12.7 0-24.2-2.8-34.4-8.5zm61.3-28.7c7.1-7.5 10.6-17.3 10.6-29.4 0-12.2-3.5-22-10.6-29.4-7.1-7.5-16-11.2-26.9-11.2-10.8 0-19.8 3.7-26.7 11.2-7 7.5-10.5 17.3-10.5 29.4 0 12.2 3.5 22 10.5 29.4 7 7.5 15.9 11.2 26.7 11.2 10.8 0 19.8-3.7 26.9-11.2zM746.1 468.3h-41v95.1h-44.5v-95.1h-41.2v-36.7h126.8v36.7zm129.5-30.5c9.5 5.6 17 13.5 22.6 23.8 5.6 10.3 8.4 22.2 8.4 35.9 0 13.6-2.8 25.6-8.4 35.9-5.6 10.3-13.1 18.2-22.6 23.8-9.5 5.6-20.1 8.4-31.7 8.4-14.9 0-26.8-4.6-35.6-13.9v58.8h-44.8v-179h42.7v13.1c8.3-10.2 20.9-15.3 37.7-15.3 11.6.1 22.1 2.9 31.7 8.5zm-21.8 82.7c5-5.6 7.5-13.3 7.5-23s-2.5-17.4-7.5-23c-5-5.6-11.5-8.4-19.3-8.4-7.9 0-14.3 2.8-19.3 8.4-5 5.6-7.5 13.3-7.5 23s2.5 17.4 7.5 23c5 5.6 11.5 8.4 19.3 8.4 7.8 0 14.2-2.8 19.3-8.4zm202.8-11.3h-92.8c1.9 6.8 5.5 12 11 15.7 5.4 3.6 12.2 5.5 20.4 5.5 6.1 0 11.4-.9 15.9-2.7 4.5-1.8 9-4.7 13.5-8.8l23.6 25.3c-12.4 14.3-30.6 21.4-54.4 21.4-14.9 0-28-2.9-39.4-8.8-11.3-5.8-20.1-13.9-26.3-24.3-6.2-10.4-9.3-22.1-9.3-35.3 0-13 3-24.6 9.1-34.9 6-10.3 14.4-18.4 25.1-24.2 10.7-5.8 22.7-8.8 36.1-8.8 12.7 0 24.3 2.7 34.6 8.1 10.4 5.4 18.6 13.3 24.6 23.6s9.1 22.5 9.1 36.6c-.1.5-.3 4.3-.8 11.6zm-84.7-40.9c-4.6 4.1-7.6 9.6-8.8 16.5h52.3c-1.3-7-4.2-12.5-8.8-16.5-4.6-4-10.4-6.1-17.3-6.1-7 0-12.7 2.1-17.4 6.1zm109-36.7h44.5v48.9h45.9v-48.9h44.8v131.8h-44.8v-46.2h-45.9v46.2h-44.5V431.6zm266.1 12.8c11.2 10 16.7 25.3 16.7 45.8v73.2H1322v-17c-6.4 12.8-19 19.2-37.7 19.2-9.9 0-18.5-1.8-25.7-5.3-7.2-3.6-12.7-8.4-16.4-14.5-3.7-6.1-5.5-13-5.5-20.8 0-12.5 4.6-22.2 13.9-29.1 9.3-6.9 23.6-10.3 42.9-10.3h25.4c-.8-13.9-9.8-20.9-27.1-20.9-6.1 0-12.3 1-18.6 3-6.3 2-11.6 4.8-16 8.4l-15.1-31.4c7.1-4.9 15.7-8.6 25.8-11.3 10.1-2.7 20.3-4 30.5-4 21.2 0 37.4 5 48.6 15zm-36.6 88.1c3.9-2.6 6.8-6.4 8.5-11.4v-11.4h-19.3c-13 0-19.6 4.5-19.6 13.4 0 4.1 1.5 7.3 4.5 9.7 3 2.4 7.1 3.6 12.3 3.6 5.1 0 9.7-1.3 13.6-3.9zm212.3-16h-13.2v46.9h-44.1v-46.9H1452l-23.1 46.9h-53l38.4-68.1-35.6-63.7h47.4l25 48.6h14.4v-48.6h44.1v48.6h13.9l25.2-48.6h47.4l-35.8 63.7 38.6 68.1h-53l-23.2-46.9zm216.6-7.3h-92.8c1.9 6.8 5.5 12 11 15.7 5.4 3.6 12.2 5.5 20.4 5.5 6.1 0 11.4-.9 15.9-2.7 4.5-1.8 9-4.7 13.6-8.8l23.6 25.3c-12.4 14.3-30.6 21.4-54.4 21.4-14.9 0-28-2.9-39.4-8.8-11.3-5.8-20.1-13.9-26.3-24.3-6.2-10.4-9.3-22.1-9.3-35.3 0-13 3-24.6 9.1-34.9 6-10.3 14.4-18.4 25.1-24.2s22.7-8.8 36.1-8.8c12.7 0 24.3 2.7 34.6 8.1 10.4 5.4 18.6 13.3 24.6 23.6s9.1 22.5 9.1 36.6c-.2.5-.4 4.3-.9 11.6zm-84.7-40.9c-4.6 4.1-7.6 9.6-8.8 16.5h52.3c-1.3-7-4.2-12.5-8.8-16.5-4.6-4-10.4-6.1-17.3-6.1-7 0-12.8 2.1-17.4 6.1zm221-30.5c9.5 5.6 17 13.5 22.6 23.8 5.6 10.3 8.4 22.2 8.4 35.9 0 13.6-2.8 25.6-8.4 35.9-5.6 10.3-13.1 18.2-22.6 23.8-9.5 5.6-20.1 8.4-31.7 8.4-14.9 0-26.8-4.6-35.6-13.9v58.8h-44.8v-179h42.6v13.1c8.3-10.2 20.9-15.3 37.7-15.3 11.8.1 22.3 2.9 31.8 8.5zm-21.8 82.7c5-5.6 7.5-13.3 7.5-23s-2.5-17.4-7.5-23c-5-5.6-11.5-8.4-19.3-8.4s-14.3 2.8-19.3 8.4c-5 5.6-7.5 13.3-7.5 23s2.5 17.4 7.5 23c5 5.6 11.5 8.4 19.3 8.4s14.3-2.8 19.3-8.4zm-867-141.3h-25.4v-130H991v85.1l70.9-85.1h25.4v130.1h-29.5v-85.1l-71 85zm77.8-159.3c-11 7.4-24.5 11.1-40.3 11.1-15.8 0-29.3-3.7-40.3-11.1v-23.6c12.3 7.6 25.8 11.4 40.3 11.4 14.5 0 28-3.8 40.3-11.4v23.6z"/></svg>