<svg xmlns="http://www.w3.org/2000/svg" width="512" height="512" viewBox="0 0 512.001 512.001"><circle r="256" cx="256" cy="256" fill="#fe1"/><path xmlns="http://www.w3.org/2000/svg" d="M308.833 140.8H203.167c-34.39 0-62.367 27.977-62.367 62.367v105.668c0 34.388 27.977 62.365 62.367 62.365h105.668c34.388 0 62.365-27.977 62.365-62.365V203.167c0-34.39-27.977-62.367-62.367-62.367zM256 318.998c-34.738 0-62.998-28.26-62.998-62.998s28.26-62.998 62.998-62.998 62.998 28.26 62.998 62.998-28.26 62.998-62.998 62.998zm64.505-111.14c-10.266 0-18.616-8.349-18.616-18.614s8.35-18.617 18.616-18.617 18.617 8.35 18.617 18.617-8.352 18.615-18.617 18.615zm0 0" data-original="#000000"/><path xmlns="http://www.w3.org/2000/svg" d="M256 206.509c-27.288 0-49.491 22.201-49.491 49.491 0 27.288 22.203 49.491 49.491 49.491 27.29 0 49.491-22.203 49.491-49.491 0-27.29-22.201-49.491-49.491-49.491zm64.505-22.374a5.115 5.115 0 00-5.109 5.109 5.115 5.115 0 005.109 5.108c2.817 0 5.11-2.29 5.11-5.108a5.114 5.114 0 00-5.11-5.109zm0 0" data-original="#000000"/></svg>