<svg xmlns="http://www.w3.org/2000/svg" width="512" height="512"><circle r="256" cx="256" cy="256" fill="#fe1"/><path d="M256.029 140.8h-.058C192.453 140.8 140.8 192.467 140.8 256c0 25.2 8.122 48.557 21.931 67.522l-14.357 42.796 44.28-14.155C210.87 364.23 232.6 371.2 256.03 371.2c63.518 0 115.171-51.682 115.171-115.2S319.548 140.8 256.03 140.8zm67.032 162.677c-2.78 7.848-13.81 14.357-22.608 16.257-6.02 1.282-13.882 2.304-40.349-8.668-33.854-14.026-55.656-48.428-57.355-50.66-1.627-2.232-13.68-18.216-13.68-34.747s8.395-24.58 11.779-28.037c2.78-2.836 7.373-4.132 11.78-4.132 1.425 0 2.706.072 3.858.13 3.384.143 5.084.345 7.316 5.687 2.779 6.696 9.547 23.227 10.353 24.927.821 1.699 1.642 4.003.49 6.235-1.08 2.304-2.03 3.326-3.73 5.285-1.699 1.958-3.312 3.456-5.011 5.558-1.555 1.829-3.312 3.787-1.354 7.171 1.959 3.312 8.727 14.357 18.692 23.227 12.859 11.448 23.284 15.106 27.014 16.661 2.78 1.152 6.091.879 8.122-1.281 2.577-2.78 5.76-7.388 9-11.924 2.304-3.254 5.212-3.657 8.265-2.505 3.11 1.08 19.57 9.216 22.954 10.9 3.384 1.7 5.616 2.506 6.437 3.932.806 1.425.806 8.121-1.973 15.984z" data-original="#000000" xmlns="http://www.w3.org/2000/svg"/></svg>